<svg width="179" height="35" viewBox="0 0 179 35" fill="none" xmlns="http://www.w3.org/2000/svg">
<mask id="mask0_25_1648" style="mask-type:alpha" maskUnits="userSpaceOnUse" x="0" y="0" width="179" height="35">
<path d="M18.1848 1.31108C18.1848 1.97962 17.5776 2.52158 16.8285 2.52158C16.0794 2.52158 15.4722 1.97962 15.4722 1.31108C15.4722 0.642543 16.0794 0.100586 16.8285 0.100586C17.5776 0.100586 18.1848 0.642543 18.1848 1.31108Z" fill="#FAFAFA"/>
<path d="M18.1848 1.31108C18.1848 1.97962 17.5776 2.52158 16.8285 2.52158C16.0794 2.52158 15.4722 1.97962 15.4722 1.31108C15.4722 0.642543 16.0794 0.100586 16.8285 0.100586C17.5776 0.100586 18.1848 0.642543 18.1848 1.31108Z" fill="#FAFAFA"/>
<path d="M3.77366 9.21977C3.77366 9.88831 3.16642 10.4303 2.41735 10.4303C1.66828 10.4303 1.06104 9.88831 1.06104 9.21977C1.06104 8.55123 1.66828 8.00928 2.41735 8.00928C3.16642 8.00928 3.77366 8.55123 3.77366 9.21977Z" fill="#FAFAFA"/>
<path d="M32.5954 9.21977C32.5954 9.88831 31.9882 10.4303 31.2391 10.4303C30.4901 10.4303 29.8828 9.88831 29.8828 9.21977C29.8828 8.55123 30.4901 8.00928 31.2391 8.00928C31.9882 8.00928 32.5954 8.55123 32.5954 9.21977Z" fill="#FAFAFA"/>
<path d="M32.5954 25.0367C32.5954 25.7052 31.9882 26.2472 31.2391 26.2472C30.4901 26.2472 29.8828 25.7052 29.8828 25.0367C29.8828 24.3681 30.4901 23.8262 31.2391 23.8262C31.9882 23.8262 32.5954 24.3681 32.5954 25.0367Z" fill="#FAFAFA"/>
<path d="M3.77366 25.0367C3.77366 25.7052 3.16642 26.2472 2.41735 26.2472C1.66828 26.2472 1.06104 25.7052 1.06104 25.0367C1.06104 24.3681 1.66828 23.8262 2.41735 23.8262C3.16642 23.8262 3.77366 24.3681 3.77366 25.0367Z" fill="#FAFAFA"/>
<path d="M18.1848 32.9454C18.1848 33.6139 17.5776 34.1559 16.8285 34.1559C16.0794 34.1559 15.4722 33.6139 15.4722 32.9454C15.4722 32.2768 16.0794 31.7349 16.8285 31.7349C17.5776 31.7349 18.1848 32.2768 18.1848 32.9454Z" fill="#FAFAFA"/>
<path d="M25.8137 29.0716C25.8137 30.0076 25.0167 30.7663 24.0336 30.7663C23.0504 30.7663 22.2534 30.0076 22.2534 29.0716C22.2534 28.1357 23.0504 27.377 24.0336 27.377C25.0167 27.377 25.8137 28.1357 25.8137 29.0716Z" fill="#FAFAFA"/>
<path d="M11.4031 29.0716C11.4031 30.0076 10.6061 30.7663 9.62293 30.7663C8.63978 30.7663 7.84277 30.0076 7.84277 29.0716C7.84277 28.1357 8.63978 27.377 9.62293 27.377C10.6061 27.377 11.4031 28.1357 11.4031 29.0716Z" fill="#FAFAFA"/>
<path d="M11.4031 5.18444C11.4031 6.12039 10.6061 6.87913 9.62293 6.87913C8.63978 6.87913 7.84277 6.12039 7.84277 5.18444C7.84277 4.24849 8.63978 3.48975 9.62293 3.48975C10.6061 3.48975 11.4031 4.24849 11.4031 5.18444Z" fill="#FAFAFA"/>
<path d="M25.8137 5.18444C25.8137 6.12039 25.0167 6.87913 24.0336 6.87913C23.0504 6.87913 22.2534 6.12039 22.2534 5.18444C22.2534 4.24849 23.0504 3.48975 24.0336 3.48975C25.0167 3.48975 25.8137 4.24849 25.8137 5.18444Z" fill="#FAFAFA"/>
<path d="M32.9348 17.1283C32.9348 18.0642 32.1378 18.823 31.1547 18.823C30.1715 18.823 29.3745 18.0642 29.3745 17.1283C29.3745 16.1923 30.1715 15.4336 31.1547 15.4336C32.1378 15.4336 32.9348 16.1923 32.9348 17.1283Z" fill="#FAFAFA"/>
<path d="M4.11305 17.1283C4.11305 18.0642 3.31605 18.823 2.33289 18.823C1.34974 18.823 0.552734 18.0642 0.552734 17.1283C0.552734 16.1923 1.34974 15.4336 2.33289 15.4336C3.31605 15.4336 4.11305 16.1923 4.11305 17.1283Z" fill="#FAFAFA"/>
<path d="M11.7424 13.1739C11.7424 14.3327 10.7936 15.2721 9.62315 15.2721C8.45272 15.2721 7.50391 14.3327 7.50391 13.1739C7.50391 12.0151 8.45272 11.0757 9.62315 11.0757C10.7936 11.0757 11.7424 12.0151 11.7424 13.1739Z" fill="#FAFAFA"/>
<path d="M26.153 13.1739C26.153 14.3327 25.2042 15.2721 24.0338 15.2721C22.8634 15.2721 21.9146 14.3327 21.9146 13.1739C21.9146 12.0151 22.8634 11.0757 24.0338 11.0757C25.2042 11.0757 26.153 12.0151 26.153 13.1739Z" fill="#FAFAFA"/>
<path d="M26.153 21.0826C26.153 22.2414 25.2042 23.1808 24.0338 23.1808C22.8634 23.1808 21.9146 22.2414 21.9146 21.0826C21.9146 19.9238 22.8634 18.9844 24.0338 18.9844C25.2042 18.9844 26.153 19.9238 26.153 21.0826Z" fill="#FAFAFA"/>
<path d="M11.7424 21.0826C11.7424 22.2414 10.7936 23.1808 9.62315 23.1808C8.45272 23.1808 7.50391 22.2414 7.50391 21.0826C7.50391 19.9238 8.45272 18.9844 9.62315 18.9844C10.7936 18.9844 11.7424 19.9238 11.7424 21.0826Z" fill="#FAFAFA"/>
<path d="M19.0325 25.1177C19.0325 26.2765 18.0458 27.2159 16.8285 27.2159C15.6113 27.2159 14.6245 26.2765 14.6245 25.1177C14.6245 23.9589 15.6113 23.0195 16.8285 23.0195C18.0458 23.0195 19.0325 23.9589 19.0325 25.1177Z" fill="#FAFAFA"/>
<path d="M19.3713 17.2091C19.3713 18.5462 18.2327 19.6301 16.8282 19.6301C15.4237 19.6301 14.2852 18.5462 14.2852 17.2091C14.2852 15.872 15.4237 14.7881 16.8282 14.7881C18.2327 14.7881 19.3713 15.872 19.3713 17.2091Z" fill="#FAFAFA"/>
<path d="M19.0325 9.30034C19.0325 10.4591 18.0458 11.3985 16.8285 11.3985C15.6113 11.3985 14.6245 10.4591 14.6245 9.30034C14.6245 8.14154 15.6113 7.20215 16.8285 7.20215C18.0458 7.20215 19.0325 8.14154 19.0325 9.30034Z" fill="#FAFAFA"/>
<path d="M49.6919 11.2506C51.9345 11.2506 53.3264 12.2637 53.3264 13.9367C53.3264 15.1339 52.5995 16.0395 51.4241 16.3311C52.8779 16.5767 53.744 17.6051 53.744 19.0479C53.744 20.8897 52.2438 21.9948 49.8002 21.9948H44.9902V11.2506H49.6919ZM49.5991 15.7018C50.759 15.7018 51.455 15.1799 51.455 14.259C51.455 13.3688 50.759 12.8623 49.5991 12.8776H46.8152V15.7018H49.5991ZM49.5991 20.3679C51.022 20.3832 51.8726 19.8153 51.8726 18.8176C51.8726 17.866 51.022 17.2827 49.5991 17.2981H46.8152V20.3679H49.5991Z" fill="#FAFAFA"/>
<path d="M58.8099 11.2506H60.6349V20.3525H65.3211V21.9948H58.8099V11.2506Z" fill="#FAFAFA"/>
<path d="M78.0888 21.9948L77.0526 19.5697H71.5931L70.5569 21.9948H68.6546L73.4336 11.2506H75.305L80.0376 21.9948H78.0888ZM72.2736 17.9581H76.3567L74.3152 13.1846L72.2736 17.9581Z" fill="#FAFAFA"/>
<path d="M91.9495 14.1823C91.1607 13.3381 90.0317 12.8162 88.9336 12.8162C86.7684 12.8162 85.0671 14.4739 85.0671 16.592C85.0671 18.7102 86.7684 20.3832 88.9336 20.3832C90.0163 20.3832 91.1298 19.892 91.9495 19.1092L93.0321 20.3065C91.934 21.3809 90.372 22.0716 88.8408 22.0716C85.6703 22.0716 83.2112 19.6925 83.2112 16.6074C83.2112 13.553 85.7012 11.2046 88.9027 11.2046C90.4338 11.2046 91.965 11.8339 93.0166 12.8623L91.9495 14.1823Z" fill="#FAFAFA"/>
<path d="M107.211 21.9948H105.015L101.457 17.252L99.617 19.2627V21.9948H97.792V11.2506H99.617V16.8069L104.783 11.2506H106.932L102.741 15.8399L107.211 21.9948Z" fill="#FAFAFA"/>
<path d="M116.495 11.2506C118.737 11.2506 120.129 12.2637 120.129 13.9367C120.129 15.1339 119.402 16.0395 118.227 16.3311C119.681 16.5767 120.547 17.6051 120.547 19.0479C120.547 20.8897 119.046 21.9948 116.603 21.9948H111.793V11.2506H116.495ZM116.402 15.7018C117.562 15.7018 118.258 15.1799 118.258 14.259C118.258 13.3688 117.562 12.8623 116.402 12.8776H113.618V15.7018H116.402ZM116.402 20.3679C117.825 20.3832 118.675 19.8153 118.675 18.8176C118.675 17.866 117.825 17.2827 116.402 17.2981H113.618V20.3679H116.402Z" fill="#FAFAFA"/>
<path d="M130.453 11.2046C133.686 11.2046 136.191 13.553 136.191 16.6227C136.191 19.6925 133.686 22.0716 130.453 22.0716C127.221 22.0716 124.716 19.6925 124.716 16.6227C124.716 13.5376 127.221 11.2046 130.453 11.2046ZM130.469 12.8316C128.335 12.8316 126.572 14.4892 126.572 16.6227C126.572 18.7562 128.35 20.4446 130.469 20.4446C132.588 20.4446 134.32 18.7562 134.32 16.6227C134.32 14.4892 132.588 12.8316 130.469 12.8316Z" fill="#FAFAFA"/>
<path d="M140.121 11.2506H142.24L144.884 14.9804L147.544 11.2506H149.679L146.044 16.4079L149.988 21.9948H147.807L144.884 17.9427L141.977 21.9948H139.842L143.786 16.4846L140.121 11.2506Z" fill="#FAFAFA"/>
<path d="M170.205 21.9948L169.169 19.5697H163.709L162.673 21.9948H160.771L165.55 11.2506H167.421L172.154 21.9948H170.205ZM164.39 17.9581H168.473L166.431 13.1846L164.39 17.9581Z" fill="#FAFAFA"/>
<path d="M176.496 11.2506H178.321V21.9948H176.496V11.2506Z" fill="#FAFAFA"/>
</mask>
<g mask="url(#mask0_25_1648)">
<rect x="0.552734" y="0.100586" width="178.004" height="34.4562" fill="white"/>
</g>
</svg>
