<svg width="51" height="262" viewBox="0 0 51 262" fill="none" xmlns="http://www.w3.org/2000/svg">
<mask id="mask0_95_4090" style="mask-type:alpha" maskUnits="userSpaceOnUse" x="0" y="0" width="51" height="262">
<path d="M2.27725 235.613C3.2588 235.613 4.0545 236.504 4.0545 237.604C4.0545 238.704 3.2588 239.595 2.27725 239.595C1.2957 239.595 0.5 238.704 0.5 237.604C0.5 236.504 1.2957 235.613 2.27725 235.613Z" fill="#FAFAFA"/>
<path d="M2.27725 235.613C3.2588 235.613 4.0545 236.504 4.0545 237.604C4.0545 238.704 3.2588 239.595 2.27725 239.595C1.2957 239.595 0.5 238.704 0.5 237.604C0.5 236.504 1.2957 235.613 2.27725 235.613Z" fill="#FAFAFA"/>
<path d="M13.8886 256.771C14.8701 256.771 15.6658 257.662 15.6658 258.762C15.6658 259.862 14.8701 260.753 13.8886 260.753C12.907 260.753 12.1113 259.862 12.1113 258.762C12.1113 257.662 12.907 256.771 13.8886 256.771Z" fill="#FAFAFA"/>
<path d="M13.8886 214.455C14.8701 214.455 15.6658 215.346 15.6658 216.446C15.6658 217.546 14.8701 218.437 13.8886 218.437C12.907 218.437 12.1113 217.546 12.1113 216.446C12.1113 215.346 12.907 214.455 13.8886 214.455Z" fill="#FAFAFA"/>
<path d="M37.1112 214.455C38.0928 214.455 38.8885 215.346 38.8885 216.446C38.8885 217.546 38.0928 218.437 37.1112 218.437C36.1297 218.437 35.334 217.546 35.334 216.446C35.334 215.346 36.1297 214.455 37.1112 214.455Z" fill="#FAFAFA"/>
<path d="M37.1112 256.771C38.0928 256.771 38.8885 257.662 38.8885 258.762C38.8885 259.862 38.0928 260.753 37.1112 260.753C36.1297 260.753 35.334 259.862 35.334 258.762C35.334 257.662 36.1297 256.771 37.1112 256.771Z" fill="#FAFAFA"/>
<path d="M48.7226 235.613C49.7041 235.613 50.4998 236.504 50.4998 237.604C50.4998 238.704 49.7041 239.595 48.7226 239.595C47.741 239.595 46.9453 238.704 46.9453 237.604C46.9453 236.504 47.741 235.613 48.7226 235.613Z" fill="#FAFAFA"/>
<path d="M43.036 224.411C44.4102 224.411 45.5242 225.581 45.5242 227.025C45.5242 228.468 44.4102 229.638 43.036 229.638C41.6618 229.638 40.5479 228.468 40.5479 227.025C40.5479 225.581 41.6618 224.411 43.036 224.411Z" fill="#FAFAFA"/>
<path d="M43.036 245.569C44.4102 245.569 45.5242 246.74 45.5242 248.183C45.5242 249.627 44.4102 250.797 43.036 250.797C41.6618 250.797 40.5479 249.627 40.5479 248.183C40.5479 246.74 41.6618 245.569 43.036 245.569Z" fill="#FAFAFA"/>
<path d="M7.96471 245.569C9.33888 245.569 10.4529 246.74 10.4529 248.183C10.4529 249.627 9.33888 250.797 7.96471 250.797C6.59055 250.797 5.47656 249.627 5.47656 248.183C5.47656 246.74 6.59055 245.569 7.96471 245.569Z" fill="#FAFAFA"/>
<path d="M7.96471 224.411C9.33888 224.411 10.4529 225.581 10.4529 227.025C10.4529 228.468 9.33888 229.638 7.96471 229.638C6.59055 229.638 5.47656 228.468 5.47656 227.025C5.47656 225.581 6.59055 224.411 7.96471 224.411Z" fill="#FAFAFA"/>
<path d="M25.4999 213.957C26.874 213.957 27.988 215.127 27.988 216.571C27.988 218.014 26.874 219.184 25.4999 219.184C24.1257 219.184 23.0117 218.014 23.0117 216.571C23.0117 215.127 24.1257 213.957 25.4999 213.957Z" fill="#FAFAFA"/>
<path d="M25.4999 256.273C26.874 256.273 27.988 257.443 27.988 258.886C27.988 260.33 26.874 261.5 25.4999 261.5C24.1257 261.5 23.0117 260.33 23.0117 258.886C23.0117 257.443 24.1257 256.273 25.4999 256.273Z" fill="#FAFAFA"/>
<path d="M19.6938 245.072C21.3952 245.072 22.7744 246.465 22.7744 248.183C22.7744 249.901 21.3952 251.294 19.6938 251.294C17.9925 251.294 16.6133 249.901 16.6133 248.183C16.6133 246.465 17.9925 245.072 19.6938 245.072Z" fill="#FAFAFA"/>
<path d="M19.6938 223.913C21.3952 223.913 22.7744 225.306 22.7744 227.025C22.7744 228.743 21.3952 230.136 19.6938 230.136C17.9925 230.136 16.6133 228.743 16.6133 227.025C16.6133 225.306 17.9925 223.913 19.6938 223.913Z" fill="#FAFAFA"/>
<path d="M31.3062 223.913C33.0075 223.913 34.3867 225.306 34.3867 227.025C34.3867 228.743 33.0075 230.136 31.3062 230.136C29.6048 230.136 28.2256 228.743 28.2256 227.025C28.2256 225.306 29.6048 223.913 31.3062 223.913Z" fill="#FAFAFA"/>
<path d="M31.3062 245.071C33.0075 245.071 34.3867 246.465 34.3867 248.183C34.3867 249.901 33.0075 251.294 31.3062 251.294C29.6048 251.294 28.2256 249.901 28.2256 248.183C28.2256 246.465 29.6048 245.071 31.3062 245.071Z" fill="#FAFAFA"/>
<path d="M37.23 234.368C38.9313 234.368 40.3106 235.817 40.3106 237.604C40.3106 239.391 38.9313 240.84 37.23 240.84C35.5286 240.84 34.1494 239.391 34.1494 237.604C34.1494 235.817 35.5286 234.368 37.23 234.368Z" fill="#FAFAFA"/>
<path d="M25.619 233.87C27.5821 233.87 29.1735 235.542 29.1735 237.604C29.1735 239.666 27.5821 241.338 25.619 241.338C23.6559 241.338 22.0645 239.666 22.0645 237.604C22.0645 235.542 23.6559 233.87 25.619 233.87Z" fill="#FAFAFA"/>
<path d="M14.0073 234.368C15.7087 234.368 17.0879 235.817 17.0879 237.604C17.0879 239.391 15.7087 240.84 14.0073 240.84C12.306 240.84 10.9268 239.391 10.9268 237.604C10.9268 235.817 12.306 234.368 14.0073 234.368Z" fill="#FAFAFA"/>
<path d="M16.8713 189.354C16.8713 186.061 18.3586 184.018 20.815 184.018C22.5727 184.018 23.9023 185.085 24.3305 186.811C24.691 184.676 26.2009 183.404 28.3192 183.404C31.0234 183.404 32.646 185.607 32.646 189.195L32.646 196.257L16.8713 196.257L16.8713 189.354ZM23.4065 189.49C23.4065 187.787 22.6403 186.765 21.2882 186.765C19.9812 186.765 19.2375 187.787 19.26 189.49L19.26 193.577L23.4065 193.577L23.4065 189.49ZM30.2572 189.49C30.2798 187.401 29.446 186.152 27.9812 186.152C26.584 186.152 25.7277 187.401 25.7502 189.49L25.7502 193.577L30.2572 193.577L30.2572 189.49Z" fill="#FAFAFA"/>
<path d="M16.8713 175.967L16.8713 173.287L30.2347 173.287L30.2347 166.407L32.646 166.407L32.646 175.967L16.8713 175.967Z" fill="#FAFAFA"/>
<path d="M32.646 147.661L29.0854 149.183L29.0854 157.198L32.646 158.72L32.646 161.513L16.8713 154.496L16.8713 151.749L32.646 144.8L32.646 147.661ZM26.7192 156.199L26.7192 150.204L19.7108 153.202L26.7192 156.199Z" fill="#FAFAFA"/>
<path d="M21.1755 127.311C19.9361 128.469 19.1699 130.127 19.1699 131.739C19.1699 134.918 21.6037 137.416 24.7136 137.416C27.8234 137.416 30.2798 134.918 30.2798 131.739C30.2798 130.149 29.5586 128.515 28.4093 127.311L30.1671 125.722C31.7446 127.334 32.7586 129.627 32.7586 131.875C32.7586 136.53 29.2657 140.141 24.7361 140.141C20.2516 140.141 16.8037 136.485 16.8037 131.784C16.8037 129.536 17.7277 127.288 19.2375 125.744L21.1755 127.311Z" fill="#FAFAFA"/>
<path d="M32.646 104.904L32.646 108.129L25.6826 113.351L28.6347 116.054L32.646 116.054L32.646 118.733L16.8713 118.733L16.8713 116.054L25.0291 116.054L16.8713 108.469L16.8713 105.313L23.6093 111.467L32.646 104.904Z" fill="#FAFAFA"/>
<path d="M16.8713 91.2739C16.8713 87.9814 18.3586 85.9377 20.815 85.9377C22.5727 85.9377 23.9023 87.005 24.3305 88.7307C24.691 86.5962 26.2009 85.3246 28.3192 85.3246C31.0234 85.3246 32.646 87.5272 32.646 91.115L32.646 98.1769L16.8713 98.1769L16.8713 91.2739ZM23.4065 91.4102C23.4065 89.7071 22.6403 88.6853 21.2882 88.6853C19.9812 88.6853 19.2375 89.7071 19.26 91.4102L19.26 95.4975L23.4065 95.4975L23.4065 91.4102ZM30.2572 91.4102C30.2798 89.3211 29.446 88.0722 27.9812 88.0722C26.584 88.0722 25.7276 89.3211 25.7502 91.4102L25.7502 95.4975L30.2572 95.4975L30.2572 91.4102Z" fill="#FAFAFA"/>
<path d="M16.8037 70.7795C16.8037 66.0337 20.2516 62.3551 24.7586 62.3551C29.2657 62.3551 32.7586 66.0337 32.7586 70.7795C32.7586 75.5253 29.2657 79.2038 24.7586 79.2038C20.2291 79.2038 16.8037 75.5253 16.8037 70.7795ZM19.1924 70.7568C19.1924 73.8903 21.6262 76.479 24.7586 76.479C27.891 76.479 30.3699 73.8676 30.3699 70.7568C30.3699 67.6459 27.891 65.1027 24.7586 65.1027C21.6262 65.1027 19.1924 67.6459 19.1924 70.7568Z" fill="#FAFAFA"/>
<path d="M16.8713 56.5859L16.8713 53.475L22.3474 49.5921L16.8713 45.6865L16.8713 42.5529L24.4431 47.8891L32.646 42.0987L32.646 45.3005L26.6967 49.5921L32.646 53.861L32.646 56.9946L24.5558 51.2043L16.8713 56.5859Z" fill="#FAFAFA"/>
<path d="M32.646 12.4162L29.0854 13.9376L29.0854 21.9532L32.646 23.4746L32.646 26.2676L16.8713 19.2511L16.8713 16.5035L32.646 9.55513L32.646 12.4162ZM26.7192 20.9541L26.7192 14.9594L19.7107 17.9568L26.7192 20.9541Z" fill="#FAFAFA"/>
<path d="M16.8713 3.17939L16.8713 0.499941L32.646 0.49994L32.646 3.17939L16.8713 3.17939Z" fill="#FAFAFA"/>
</mask>
<g mask="url(#mask0_95_4090)">
<rect x="0.5" y="261.5" width="261.346" height="50.5887" transform="rotate(-90 0.5 261.5)" fill="url(#paint0_radial_95_4090)"/>
</g>
<defs>
<radialGradient id="paint0_radial_95_4090" cx="0" cy="0" r="1" gradientUnits="userSpaceOnUse" gradientTransform="translate(131.173 312.089) rotate(-90) scale(50.5887 261.346)">
<stop stop-color="#D9D9D9"/>
<stop offset="1" stop-color="white" stop-opacity="0.45"/>
</radialGradient>
</defs>
</svg>
