<svg width="22" height="22" viewBox="0 0 22 22" fill="none" xmlns="http://www.w3.org/2000/svg">
<g clip-path="url(#clip0_195_9178)">
<path d="M0.916504 3.6665V9.1665H6.4165" stroke="white" stroke-width="2" stroke-linecap="round" stroke-linejoin="round"/>
<path d="M21.0835 18.3335V12.8335H15.5835" stroke="white" stroke-width="2" stroke-linecap="round" stroke-linejoin="round"/>
<path d="M18.7823 8.24978C18.3174 6.936 17.5273 5.7614 16.4857 4.83558C15.444 3.90977 14.1848 3.2629 12.8256 2.95535C11.4663 2.64781 10.0513 2.6896 8.71258 3.07683C7.37385 3.46406 6.15502 4.18411 5.16984 5.16978L0.916504 9.16645M21.0832 12.8331L16.8298 16.8298C15.8447 17.8155 14.6258 18.5355 13.2871 18.9227C11.9484 19.31 10.5334 19.3518 9.1741 19.0442C7.81485 18.7367 6.55565 18.0898 5.51401 17.164C4.47238 16.2382 3.68224 15.0636 3.21734 13.7498" stroke="white" stroke-width="2" stroke-linecap="round" stroke-linejoin="round"/>
</g>
<defs>
<clipPath id="clip0_195_9178">
<rect width="22" height="22" fill="white"/>
</clipPath>
</defs>
</svg>
